<svg width="10" height="18" viewBox="0 0 10 18" fill="none" xmlns="http://www.w3.org/2000/svg">
<path d="M9.49915 0.0037452L7.16498 0C4.54262 0 2.84793 1.73871 2.84793 4.42982V6.47227H0.501029C0.298228 6.47227 0.134003 6.63668 0.134003 6.83949V9.79876C0.134003 10.0016 0.298415 10.1658 0.501029 10.1658H2.84793V17.633C2.84793 17.8358 3.01216 18 3.21496 18H6.277C6.4798 18 6.64403 17.8356 6.64403 17.633V10.1658H9.38811C9.59091 10.1658 9.75514 10.0016 9.75514 9.79876L9.75626 6.83949C9.75626 6.74211 9.7175 6.64886 9.64877 6.57994C9.58005 6.51103 9.48642 6.47227 9.38905 6.47227H6.64403V4.74086C6.64403 3.90868 6.84234 3.48622 7.92637 3.48622L9.49878 3.48566C9.70139 3.48566 9.86562 3.32124 9.86562 3.11863V0.370775C9.86562 0.168347 9.70158 0.00411972 9.49915 0.0037452Z" fill="#3B5998"/>
</svg>
